PathFileType	4	(X/Y/Z)	C:/Users/opensim2020/Desktop/walking_exp_matlab/subject01_walking06_straight_02.trc																																																																																																																															
DataRate	CameraRate	NumFrames	NumMarkers	Units	OrigDataRate	OrigDataStartFrame	OrigNumFrames																																																																																																																											
100	100	7	43	mm	100	1621	171																																																																																																																											
Frame#	Time	LFHD			RFHD			LBHD			RBHD			C7			T10			CLAV			STRN			RBAK			LSHO			LUPA			LELB			LFRM			LWRA			LWRB			LFIN			RSHO			RUPA			RELB			RFRM			RWRA			RWRB			RFIN			LASI			RASI			LPSI			RPSI			LTHI			LKNE			LTIB			LANK			LHEE			LTOE			RTHI			RKNE			RTIB			RANK			RHEE			RTOE			*39			*40			*41			*42		
		X1	Y1	Z1	X2	Y2	Z2	X3	Y3	Z3	X4	Y4	Z4	X5	Y5	Z5	X6	Y6	Z6	X7	Y7	Z7	X8	Y8	Z8	X9	Y9	Z9	X10	Y10	Z10	X11	Y11	Z11	X12	Y12	Z12	X13	Y13	Z13	X14	Y14	Z14	X15	Y15	Z15	X16	Y16	Z16	X17	Y17	Z17	X18	Y18	Z18	X19	Y19	Z19	X20	Y20	Z20	X21	Y21	Z21	X22	Y22	Z22	X23	Y23	Z23	X24	Y24	Z24	X25	Y25	Z25	X26	Y26	Z26	X27	Y27	Z27	X28	Y28	Z28	X29	Y29	Z29	X30	Y30	Z30	X31	Y31	Z31	X32	Y32	Z32	X33	Y33	Z33	X34	Y34	Z34	X35	Y35	Z35	X36	Y36	Z36	X37	Y37	Z37	X38	Y38	Z38	X39	Y39	Z39	X40	Y40	Z40	X41	Y41	Z41	X42	Y42	Z42	X43	Y43	Z43
																																																																																																																																		
107	1.06	149.30667	1673.31018	1104.58594	189.274	1673.35803	1212.81787	34.24192	1635.31836	1140.42212	73.65138	1635.15173	1254.52747	-5.27136	1436.67468	1170.00952	-38.8868	1142.48718	1167.77686	138.3167	1367.77966	1156.71313	181.19565	1215.14294	1143.34363	-53.41479	1239.04944	1243.84521	66.56851	1402.90491	1001.26599	31.47963	1221.09766	912.97272	15.86743	1070.41394	909.69965	55.14466	963.6123	880.51782	136.03624	848.71948	895.77112	81.76752	844.25244	869.73157	130.08063	773.3927	863.15314	87.19618	1391.28674	1313.97192	40.90096	1186.97437	1412.08508	42.73246	1061.79431	1410.89563	79.19903	945.95367	1436.875	168.21432	836.10034	1414.52563	124.50658	832.75391	1452.77087	165.8987	757.8988	1449.80334	130.07573	938.34406	1045.56628	145.85588	939.79242	1262.86804	-51.43711	945.57239	1108.1001	-41.27699	951.14069	1252.78503	163.55003	616.88873	972.12628	179.70494	485.5563	978.79102	46.68236	360.83908	985.7876	-91.92651	193.74339	1045.51282	-133.79486	193.20197	1108.01184	-12.48124	72.36733	1026.83398	99.67378	604.97296	1311.6178	108.52216	447.21411	1281.36047	53.28425	278.42322	1286.87122	23.92888	75.73097	1231.32764	-28.41436	40.644	1183.07166	164.58461	34.48255	1220.60803	174.2291	1708.54443	1194.23022	-1973.02222	1023.56329	3101.86914	-2012.52112	1021.97626	3140.55518	NaN	NaN	NaN
108	1.07	159.49413	1673.51807	1103.9342	199.55968	1673.28186	1212.11206	44.13097	1635.77075	1140.25891	83.86586	1635.63513	1254.18445	4.12384	1437.02881	1170.36633	-29.86537	1142.82568	1168.24756	147.50537	1367.85413	1156.82214	190.19341	1215.23206	1143.63391	-44.10992	1239.47363	1244.47864	75.51524	1402.87451	1001.40125	38.90194	1220.97839	913.62457	21.41264	1070.69946	911.36261	58.25061	962.95374	882.10913	135.95148	845.79529	897.49121	81.62665	842.87982	871.43213	127.6261	770.47162	865.26367	96.87401	1391.59607	1314.12646	51.37075	1187.38159	1412.6073	54.30968	1062.04871	1411.94958	92.9875	946.88025	1438.13953	184.28859	838.83667	1415.16675	140.75691	834.54926	1453.49988	183.96284	760.8465	1450.65527	139.44211	939.08325	1046.13513	154.28528	939.66736	1263.48035	-42.60868	946.11572	1108.02539	-32.75724	951.46344	1252.66187	176.67943	619.10767	971.83783	194.42958	487.86487	979.1015	65.6404	357.60947	985.8103	-66.82785	186.2123	1045.94568	-108.52365	182.97673	1109.26758	17.83909	69.89546	1023.50391	104.60156	605.02869	1311.46118	111.57819	446.86237	1281.56311	54.86155	278.78717	1286.93762	24.16158	76.18472	1231.21716	-28.13791	41.37857	1182.8905	164.73926	34.46065	1220.62891	184.59612	1708.39648	1193.44019	-1973.08801	1023.86285	3101.93872	-2012.53137	1022.01245	3140.59399	NaN	NaN	NaN
109	1.08	169.35591	1673.05249	1103.34766	209.74522	1673.16821	1211.27808	54.03962	1636.02258	1139.8728	94.05943	1636.10291	1253.81274	13.48359	1437.30688	1170.60938	-20.82892	1143.0907	1168.66296	156.69344	1367.91614	1156.85547	199.2619	1215.25549	1143.83899	-34.83162	1239.80811	1245.04578	84.53908	1402.77087	1001.41632	46.13739	1220.89856	914.06464	27.67991	1070.91443	912.78308	61.42731	962.3559	883.7063	135.96817	843.00391	899.21338	81.47373	841.67676	873.19	125.36738	767.77228	867.31604	106.14839	1391.96948	1314.13	61.7398	1187.75952	1413.28796	65.75227	1062.23474	1412.9917	106.69321	947.54401	1438.91943	200.2691	841.61627	1415.84778	157.01738	836.45557	1454.00256	201.90045	763.86847	1451.48596	148.64592	939.70929	1046.48364	162.9265	939.62524	1263.95032	-33.7851	946.50903	1107.95483	-24.25957	951.71832	1252.56982	189.63608	621.19006	971.53632	208.88745	489.93549	979.5498	84.63769	353.78506	985.6463	-42.0477	178.61862	1046.21692	-82.56044	172.03215	1110.16052	48.62171	67.63363	1020.43933	109.94736	604.67627	1311.43079	114.64824	446.71426	1281.77441	56.49563	279.12924	1287.0083	24.09128	76.71391	1231.32043	-27.92364	42.05338	1183.07446	164.80463	34.44151	1220.66223	194.92853	1708.26831	1192.5144	-1973.0719	1023.47424	3101.96094	-2012.50098	1021.99744	3140.64746	NaN	NaN	NaN
110	1.09	179.1234	1672.78748	1102.22278	219.92793	1673.02881	1210.40186	63.87586	1636.2771	1139.50757	104.19477	1636.48035	1253.32092	22.90013	1437.48267	1170.77258	-11.82105	1143.30981	1169.10498	165.88857	1367.88428	1156.79187	208.16635	1215.13696	1143.9856	-25.61942	1240.11292	1245.5188	93.52705	1402.63892	1001.41199	53.53347	1220.62292	914.64978	33.61428	1071.11047	914.04272	64.76623	961.83051	885.20465	136.09186	840.46844	900.95447	81.58744	840.63129	874.96759	123.29675	765.40057	869.19104	115.6167	1392.14282	1314.21838	72.01418	1188.10034	1414.01758	77.16087	1062.36951	1413.90552	120.31241	948.34674	1439.75781	216.09897	844.50421	1416.44458	172.79861	838.07355	1454.61035	219.6308	766.98083	1452.15588	157.64069	940.14838	1046.82483	172.26515	939.60669	1264.28552	-24.99061	946.81763	1107.7616	-15.71921	951.94006	1252.297	202.28661	623.0426	971.32623	222.91083	491.6795	980.0708	103.617	349.77292	985.4704	-15.82734	169.83687	1046.43567	-55.76299	160.51184	1110.64758	79.66014	64.62462	1017.17041	114.4948	605.07153	1311.35364	117.71492	446.58325	1281.89404	58.29511	279.49582	1287.05823	24.11542	77.33837	1231.43079	-27.64348	42.61712	1182.65466	164.99622	34.53228	1220.75708	205.19514	1708.12769	1191.55408	-1972.98682	1023.64703	3101.91138	-2012.47632	1022.01324	3140.7417	NaN	NaN	NaN
111	1.1	188.94331	1672.2644	1101.56702	230.06175	1672.8158	1209.48328	73.69523	1636.40527	1139.02844	114.33601	1636.79822	1252.70654	32.23584	1437.43115	1170.64844	-2.74845	1143.41333	1169.46057	175.06436	1367.70349	1156.63513	217.21638	1214.93347	1144.10693	-16.38318	1240.36963	1245.9165	102.59441	1402.38623	1001.2724	61.0495	1220.27368	915.40735	39.87547	1071.38965	915.32861	68.23524	961.39502	886.6076	136.38158	838.09595	902.63562	82.31459	839.75476	876.15698	121.54154	763.26556	871.16083	125.06901	1392.25806	1314.10156	82.1326	1188.19604	1414.22021	88.53326	1062.46399	1414.76123	133.78101	949.1123	1440.52856	231.78661	847.43219	1417.02148	188.6114	839.93207	1455.09802	237.15286	770.09558	1452.78088	166.51489	940.43726	1047.15393	179.89081	938.9342	1264.6062	-16.19949	947.01263	1107.48376	-7.34667	952.15228	1252.07617	214.68605	624.74103	971.24237	236.46898	493.07422	980.62787	122.55419	345.55139	985.46454	10.85383	161.09531	1046.2373	-28.07244	148.64409	1110.76599	111.66911	61.80034	1014.12714	119.37543	604.83301	1311.22021	120.83204	446.23538	1282.02075	60.10192	279.80444	1287.05103	24.54904	77.63754	1231.22998	-27.42519	43.3719	1182.53735	165.19809	34.55191	1220.70837	215.50548	1708.05444	1190.53992	-1973.09229	1023.2674	3101.93359	-2012.57422	1022.05933	3140.65601	NaN	NaN	NaN
112	1.11	198.80748	1671.99744	1100.47107	240.15726	1672.53198	1208.38037	83.51296	1636.44263	1138.41064	124.35588	1637.04968	1252.11096	41.70134	1437.70386	1171.28235	6.29467	1143.49341	1169.78918	184.23865	1367.5293	1156.47437	226.18097	1214.71497	1144.16321	-7.23818	1240.58582	1246.24756	111.78758	1402.0824	1001.07001	68.39568	1219.98254	915.65125	45.99781	1071.34644	916.48169	71.93076	961.04053	887.94769	136.93434	835.93091	904.24524	82.92981	839.073	877.65698	120.05883	761.35797	873.03699	134.56836	1392.37756	1314.01196	92.24243	1188.25964	1414.4563	99.86652	1062.54041	1415.56763	147.26265	949.86755	1441.23206	247.30821	850.35828	1417.55273	204.27484	841.89758	1455.62341	254.45647	773.20203	1453.26038	175.52083	940.60596	1047.29834	188.18961	938.51959	1264.74768	-7.41607	947.1228	1107.08728	1.06552	952.26697	1251.70007	226.54375	626.10455	971.2655	249.5255	494.18402	981.28638	141.06676	341.59445	985.5932	38.48671	151.72353	1045.76062	0.01872	136.13452	1110.31848	144.18314	58.86778	1011.15717	124.26873	604.70117	1311.17322	123.80154	446.05035	1282.03333	61.89038	280.14447	1287.08533	25.19501	77.95103	1231.1936	-27.25873	44.23388	1182.60266	165.30186	34.59663	1220.79407	225.57008	1707.67761	1189.38647	-1973.10669	1023.34741	3101.85889	-2012.59424	1022.1051	3140.59131	NaN	NaN	NaN
113	1.12	208.72124	1671.76428	1099.54065	250.1281	1672.23022	1207.39197	93.22204	1636.39709	1137.86292	134.39146	1637.13757	1251.31201	50.91256	1437.66101	1171.00122	15.32353	1143.51575	1170.07886	193.50586	1367.32251	1156.27527	235.23373	1214.37183	1144.18127	1.93591	1240.71082	1246.45105	120.9279	1401.67273	1000.73804	76.12444	1219.52087	916.19788	52.15065	1071.45142	917.53937	75.85147	960.65863	889.14783	137.83093	834.04596	905.74152	83.9407	838.51294	878.90314	119.11791	759.9469	874.50214	143.79964	1392.40051	1313.78259	102.37225	1188.33997	1414.84351	111.19788	1062.55334	1416.28918	160.62613	950.65393	1441.80786	262.7066	853.23511	1418.12463	219.76897	843.88287	1456.04846	271.46289	776.33765	1453.79443	184.48239	940.69574	1047.35242	196.64349	937.90875	1264.77478	1.40659	947.16467	1106.59705	9.61265	952.29822	1251.13538	238.11122	627.26196	971.25494	262.00247	495.09711	981.99475	159.17506	337.80386	985.57916	66.83465	142.07486	1045.03723	30.45638	123.79157	1109.88257	177.37709	56.12219	1008.3678	129.09509	604.70959	1311.23132	127.08317	445.85489	1282.17554	63.56044	280.59473	1287.14514	25.34202	78.38821	1231.1897	-26.90487	45.16174	1182.54712	165.18103	34.19558	1220.86548	235.76735	1707.45496	1188.2843	-1973.06396	1023.74884	3102.02246	-2012.4812	1021.99744	3140.63892	NaN	NaN	NaN
